<svg width="16" height="16" viewBox="0 0 16 16" fill="none" xmlns="http://www.w3.org/2000/svg">
<path d="M14.6667 14.1666C14.6667 14.44 14.44 14.6666 14.1667 14.6666H1.83334C1.56001 14.6666 1.33334 14.44 1.33334 14.1666C1.33334 13.8933 1.56001 13.6666 1.83334 13.6666H14.1667C14.44 13.6666 14.6667 13.8933 14.6667 14.1666Z" fill="#D0D5DD"/>
<path d="M10.26 3.0133L3.1 10.1733C2.82667 10.4466 2.38667 10.4466 2.12 10.1733H2.11334C1.18667 9.23997 1.18667 7.7333 2.11334 6.80663L6.88 2.03997C7.81333 1.10663 9.32 1.10663 10.2533 2.03997C10.5267 2.29997 10.5267 2.74663 10.26 3.0133Z" fill="#7A5AF8"/>
<path d="M13.88 5.65996L11.8467 3.62663C11.5733 3.3533 11.1333 3.3533 10.8667 3.62663L3.70668 10.7866C3.43335 11.0533 3.43335 11.4933 3.70668 11.7666L5.74001 13.8066C6.67334 14.7333 8.18001 14.7333 9.11335 13.8066L13.8733 9.03996C14.82 8.10663 14.82 6.5933 13.88 5.65996ZM8.50668 11.68L7.70001 12.4933C7.53334 12.66 7.26001 12.66 7.08668 12.4933C6.92001 12.3266 6.92001 12.0533 7.08668 11.88L7.90001 11.0666C8.06001 10.9066 8.34001 10.9066 8.50668 11.0666C8.67335 11.2333 8.67335 11.52 8.50668 11.68ZM11.1533 9.0333L9.52668 10.6666C9.36001 10.8266 9.08668 10.8266 8.91334 10.6666C8.74668 10.5 8.74668 10.2266 8.91334 10.0533L10.5467 8.41996C10.7067 8.25996 10.9867 8.25996 11.1533 8.41996C11.32 8.5933 11.32 8.86663 11.1533 9.0333Z" fill="#7A5AF8"/>
</svg>
