<svg width="16" height="16" viewBox="0 0 16 16" fill="none" xmlns="http://www.w3.org/2000/svg">
<path d="M14.6667 14.1666C14.6667 14.44 14.44 14.6666 14.1667 14.6666H1.83337C1.56004 14.6666 1.33337 14.44 1.33337 14.1666C1.33337 13.8933 1.56004 13.6666 1.83337 13.6666H14.1667C14.44 13.6666 14.6667 13.8933 14.6667 14.1666Z" fill="#D0D5DD"/>
<path d="M10.26 3.0133L3.1 10.1733C2.82667 10.4466 2.38667 10.4466 2.12 10.1733H2.11333C1.18667 9.23997 1.18667 7.7333 2.11333 6.80663L6.88 2.03997C7.81333 1.10663 9.32 1.10663 10.2533 2.03997C10.5267 2.29997 10.5267 2.74663 10.26 3.0133Z" fill="#7A5AF8"/>
<path d="M13.88 5.65996L11.8467 3.62663C11.5734 3.3533 11.1334 3.3533 10.8667 3.62663L3.70671 10.7866C3.43338 11.0533 3.43338 11.4933 3.70671 11.7666L5.74004 13.8066C6.67338 14.7333 8.18004 14.7333 9.11338 13.8066L13.8734 9.03996C14.82 8.10663 14.82 6.5933 13.88 5.65996ZM8.50671 11.68L7.70004 12.4933C7.53338 12.66 7.26004 12.66 7.08671 12.4933C6.92004 12.3266 6.92004 12.0533 7.08671 11.88L7.90004 11.0666C8.06004 10.9066 8.34004 10.9066 8.50671 11.0666C8.67338 11.2333 8.67338 11.52 8.50671 11.68ZM11.1534 9.0333L9.52671 10.6666C9.36004 10.8266 9.08671 10.8266 8.91338 10.6666C8.74671 10.5 8.74671 10.2266 8.91338 10.0533L10.5467 8.41996C10.7067 8.25996 10.9867 8.25996 11.1534 8.41996C11.32 8.5933 11.32 8.86663 11.1534 9.0333Z" fill="#7A5AF8"/>
</svg>
