<svg width="16" height="16" viewBox="0 0 16 16" fill="none" xmlns="http://www.w3.org/2000/svg">
<path d="M8.00004 1.33337C4.32671 1.33337 1.33337 4.32671 1.33337 8.00004C1.33337 11.6734 4.32671 14.6667 8.00004 14.6667C11.6734 14.6667 14.6667 11.6734 14.6667 8.00004C14.6667 4.32671 11.6734 1.33337 8.00004 1.33337ZM10.9 10.38C10.8067 10.54 10.64 10.6267 10.4667 10.6267C10.38 10.6267 10.2934 10.6067 10.2134 10.5534L8.14671 9.32004C7.63337 9.01337 7.25337 8.34004 7.25337 7.74671V5.01337C7.25337 4.74004 7.48004 4.51337 7.75337 4.51337C8.02671 4.51337 8.25337 4.74004 8.25337 5.01337V7.74671C8.25337 7.98671 8.45337 8.34004 8.66004 8.46004L10.7267 9.69337C10.9667 9.83337 11.0467 10.14 10.9 10.38Z" fill="#F79009"/>
</svg>
