<svg width="16" height="16" viewBox="0 0 16 16" fill="none" xmlns="http://www.w3.org/2000/svg">
<path d="M11.3333 1.33325H4.66668C2.82668 1.33325 1.33334 2.81992 1.33334 4.65325V8.63992V9.30659C1.33334 11.1399 2.82668 12.6266 4.66668 12.6266H5.66668C5.84668 12.6266 6.08668 12.7466 6.20001 12.8933L7.20001 14.2199C7.64001 14.8066 8.36001 14.8066 8.80001 14.2199L9.80001 12.8933C9.92668 12.7266 10.1267 12.6266 10.3333 12.6266H11.3333C13.1733 12.6266 14.6667 11.1399 14.6667 9.30659V4.65325C14.6667 2.81992 13.1733 1.33325 11.3333 1.33325ZM5.33334 7.99992C4.96001 7.99992 4.66668 7.69992 4.66668 7.33325C4.66668 6.96659 4.96668 6.66659 5.33334 6.66659C5.70001 6.66659 6.00001 6.96659 6.00001 7.33325C6.00001 7.69992 5.70668 7.99992 5.33334 7.99992ZM8.00001 7.99992C7.62668 7.99992 7.33334 7.69992 7.33334 7.33325C7.33334 6.96659 7.63334 6.66659 8.00001 6.66659C8.36668 6.66659 8.66668 6.96659 8.66668 7.33325C8.66668 7.69992 8.37334 7.99992 8.00001 7.99992ZM10.6667 7.99992C10.2933 7.99992 10 7.69992 10 7.33325C10 6.96659 10.3 6.66659 10.6667 6.66659C11.0333 6.66659 11.3333 6.96659 11.3333 7.33325C11.3333 7.69992 11.04 7.99992 10.6667 7.99992Z" fill="#D0D5DD"/>
</svg>
