<svg width="12" height="12" viewBox="0 0 12 12" fill="none" xmlns="http://www.w3.org/2000/svg">
<g clip-path="url(#clip0_2199_766)">
<path d="M10.31 4.35C9.79 2.035 7.77 1 6 1C6 1 6 1 5.995 1C4.23 1 2.215 2.035 1.69 4.345C1.1 6.925 2.68 9.11 4.11 10.49C4.64 11 5.32 11.255 6 11.255C6.68 11.255 7.36 11 7.885 10.49C9.315 9.11 10.895 6.93 10.31 4.35ZM7.64 4.765L5.64 6.765C5.565 6.84 5.47 6.875 5.375 6.875C5.28 6.875 5.185 6.84 5.11 6.765L4.36 6.015C4.215 5.87 4.215 5.63 4.36 5.485C4.505 5.34 4.745 5.34 4.89 5.485L5.375 5.97L7.11 4.235C7.255 4.09 7.495 4.09 7.64 4.235C7.785 4.38 7.785 4.62 7.64 4.765Z" fill="#7A5AF8"/>
</g>
<defs>
<clipPath id="clip0_2199_766">
<rect width="12" height="12" fill="white"/>
</clipPath>
</defs>
</svg>
