<svg width="10" height="10" viewBox="0 0 10 10" fill="none" xmlns="http://www.w3.org/2000/svg">
<path d="M7.50834 5.13742L7.00001 4.62909C6.87918 4.52492 6.80834 4.37075 6.80418 4.19992C6.79584 4.01242 6.87084 3.82492 7.00834 3.68742L7.50834 3.18742C7.94168 2.75409 8.10418 2.33742 7.96668 2.00825C7.83334 1.68325 7.42084 1.50409 6.81251 1.50409H2.45834V1.14575C2.45834 0.974919 2.31668 0.833252 2.14584 0.833252C1.97501 0.833252 1.83334 0.974919 1.83334 1.14575V8.85408C1.83334 9.02492 1.97501 9.16658 2.14584 9.16658C2.31668 9.16658 2.45834 9.02492 2.45834 8.85408V6.82075H6.81251C7.41251 6.82075 7.81668 6.63742 7.95418 6.30825C8.09168 5.97909 7.93334 5.56659 7.50834 5.13742Z" fill="white"/>
</svg>
