<svg width="10" height="10" viewBox="0 0 10 10" fill="none" xmlns="http://www.w3.org/2000/svg">
<path d="M3.88335 5.53344H5.17085V8.53344C5.17085 8.97511 5.72085 9.18344 6.01252 8.85011L9.16668 5.26678C9.44168 4.95428 9.22085 4.46678 8.80418 4.46678H7.51668V1.46678C7.51668 1.02511 6.96668 0.816776 6.67502 1.15011L3.52085 4.73344C3.25002 5.04594 3.47085 5.53344 3.88335 5.53344Z" fill="#F79009"/>
<path d="M3.54167 1.979H0.625C0.454167 1.979 0.3125 1.83734 0.3125 1.6665C0.3125 1.49567 0.454167 1.354 0.625 1.354H3.54167C3.7125 1.354 3.85417 1.49567 3.85417 1.6665C3.85417 1.83734 3.7125 1.979 3.54167 1.979Z" fill="#F79009"/>
<path d="M3.125 8.646H0.625C0.454167 8.646 0.3125 8.50433 0.3125 8.3335C0.3125 8.16266 0.454167 8.021 0.625 8.021H3.125C3.29583 8.021 3.4375 8.16266 3.4375 8.3335C3.4375 8.50433 3.29583 8.646 3.125 8.646Z" fill="#F79009"/>
<path d="M1.875 5.3125H0.625C0.454167 5.3125 0.3125 5.17083 0.3125 5C0.3125 4.82917 0.454167 4.6875 0.625 4.6875H1.875C2.04583 4.6875 2.1875 4.82917 2.1875 5C2.1875 5.17083 2.04583 5.3125 1.875 5.3125Z" fill="#F79009"/>
</svg>
