<svg width="10" height="10" viewBox="0 0 10 10" fill="none" xmlns="http://www.w3.org/2000/svg">
<path d="M5.00001 0.833374C2.70418 0.833374 0.833344 2.70421 0.833344 5.00004C0.833344 7.29587 2.70418 9.16671 5.00001 9.16671C7.29584 9.16671 9.16668 7.29587 9.16668 5.00004C9.16668 2.70421 7.29584 0.833374 5.00001 0.833374ZM6.81251 6.48754C6.75418 6.58754 6.65001 6.64171 6.54168 6.64171C6.48751 6.64171 6.43334 6.62921 6.38334 6.59587L5.09168 5.82504C4.77084 5.63337 4.53334 5.21254 4.53334 4.84171V3.13337C4.53334 2.96254 4.67501 2.82087 4.84584 2.82087C5.01668 2.82087 5.15834 2.96254 5.15834 3.13337V4.84171C5.15834 4.99171 5.28334 5.21254 5.41251 5.28754L6.70418 6.05837C6.85418 6.14587 6.90418 6.33754 6.81251 6.48754Z" fill="#D0D5DD"/>
</svg>
