<svg width="10" height="10" viewBox="0 0 10 10" fill="none" xmlns="http://www.w3.org/2000/svg">
<path d="M4.99998 0.833496C2.70415 0.833496 0.833313 2.70433 0.833313 5.00016C0.833313 7.296 2.70415 9.16683 4.99998 9.16683C7.29581 9.16683 9.16665 7.296 9.16665 5.00016C9.16665 2.70433 7.29581 0.833496 4.99998 0.833496ZM6.99165 4.04183L4.62915 6.40433C4.57081 6.46266 4.49165 6.496 4.40831 6.496C4.32498 6.496 4.24581 6.46266 4.18748 6.40433L3.00831 5.22516C2.88748 5.10433 2.88748 4.90433 3.00831 4.7835C3.12915 4.66266 3.32915 4.66266 3.44998 4.7835L4.40831 5.74183L6.54998 3.60016C6.67081 3.47933 6.87081 3.47933 6.99165 3.60016C7.11248 3.721 7.11248 3.91683 6.99165 4.04183Z" fill="#19B36E"/>
</svg>
