<svg width="16" height="16" viewBox="0 0 16 16" fill="none" xmlns="http://www.w3.org/2000/svg">
<path d="M8.00004 1.33337C4.32004 1.33337 1.33337 4.32004 1.33337 8.00004C1.33337 11.68 4.32004 14.6667 8.00004 14.6667C11.68 14.6667 14.6667 11.68 14.6667 8.00004C14.6667 4.32004 11.68 1.33337 8.00004 1.33337ZM5.68671 8.98004C5.88004 9.17337 5.88004 9.49337 5.68671 9.68671C5.58671 9.78671 5.46004 9.83337 5.33337 9.83337C5.20671 9.83337 5.08004 9.78671 4.98004 9.68671L3.64671 8.35337C3.45337 8.16004 3.45337 7.84004 3.64671 7.64671L4.98004 6.31337C5.17337 6.12004 5.49337 6.12004 5.68671 6.31337C5.88004 6.50671 5.88004 6.82671 5.68671 7.02004L4.70671 8.00004L5.68671 8.98004ZM9.12671 6.64004L7.79337 9.75337C7.71337 9.94004 7.52671 10.0534 7.33337 10.0534C7.26671 10.0534 7.20004 10.04 7.14004 10.0134C6.88671 9.90671 6.76671 9.61337 6.88004 9.35337L8.21337 6.24004C8.32004 5.98671 8.61337 5.86671 8.86671 5.98004C9.12004 6.09337 9.23337 6.38671 9.12671 6.64004ZM12.3534 8.35337L11.02 9.68671C10.92 9.78671 10.7934 9.83337 10.6667 9.83337C10.54 9.83337 10.4134 9.78671 10.3134 9.68671C10.12 9.49337 10.12 9.17337 10.3134 8.98004L11.2934 8.00004L10.3134 7.02004C10.12 6.82671 10.12 6.50671 10.3134 6.31337C10.5067 6.12004 10.8267 6.12004 11.02 6.31337L12.3534 7.64671C12.5467 7.84004 12.5467 8.16004 12.3534 8.35337Z" fill="#7A5AF8"/>
</svg>
