<svg width="16" height="16" viewBox="0 0 16 16" fill="none" xmlns="http://www.w3.org/2000/svg">
<path d="M7.3 8.46669L6.33333 7.51669C6.21111 7.39447 6.05844 7.33336 5.87533 7.33336C5.69222 7.33336 5.53378 7.40003 5.4 7.53336C5.27778 7.65558 5.21666 7.81114 5.21666 8.00003C5.21666 8.18892 5.27778 8.34447 5.4 8.46669L6.83333 9.90003C6.96666 10.0334 7.12222 10.1 7.3 10.1C7.47778 10.1 7.63333 10.0334 7.76666 9.90003L10.6 7.06669C10.7333 6.93336 10.7971 6.7778 10.7913 6.60003C10.7856 6.42225 10.7218 6.26669 10.6 6.13336C10.4667 6.00003 10.3084 5.93069 10.1253 5.92536C9.94222 5.92003 9.78378 5.9838 9.65 6.11669L7.3 8.46669ZM5.43333 14.5L4.46666 12.8667L2.63333 12.4667C2.46666 12.4334 2.33333 12.3474 2.23333 12.2087C2.13333 12.07 2.09444 11.9171 2.11666 11.75L2.3 9.86669L1.05 8.43336C0.938887 8.31114 0.883331 8.16669 0.883331 8.00003C0.883331 7.83336 0.938887 7.68892 1.05 7.56669L2.3 6.13336L2.11666 4.25003C2.09444 4.08336 2.13333 3.93047 2.23333 3.79136C2.33333 3.65225 2.46666 3.56625 2.63333 3.53336L4.46666 3.13336L5.43333 1.50003C5.52222 1.35558 5.64444 1.25825 5.8 1.20803C5.95555 1.1578 6.11111 1.16625 6.26666 1.23336L8 1.96669L9.73333 1.23336C9.88889 1.16669 10.0444 1.15825 10.2 1.20803C10.3556 1.2578 10.4778 1.35514 10.5667 1.50003L11.5333 3.13336L13.3667 3.53336C13.5333 3.56669 13.6667 3.65292 13.7667 3.79203C13.8667 3.93114 13.9056 4.0838 13.8833 4.25003L13.7 6.13336L14.95 7.56669C15.0611 7.68892 15.1167 7.83336 15.1167 8.00003C15.1167 8.16669 15.0611 8.31114 14.95 8.43336L13.7 9.86669L13.8833 11.75C13.9056 11.9167 13.8667 12.0696 13.7667 12.2087C13.6667 12.3478 13.5333 12.4338 13.3667 12.4667L11.5333 12.8667L10.5667 14.5C10.4778 14.6445 10.3556 14.7418 10.2 14.792C10.0444 14.8422 9.88889 14.8338 9.73333 14.7667L8 14.0334L6.26666 14.7667C6.11111 14.8334 5.95555 14.8418 5.8 14.792C5.64444 14.7422 5.52222 14.6449 5.43333 14.5Z" fill="#675AFF"/>
</svg>
